<?xml version="1.0" standalone="no"?>
<!DOCTYPE svg PUBLIC "-//W3C//DTD SVG 20010904//EN"
 "http://www.w3.org/TR/2001/REC-SVG-20010904/DTD/svg10.dtd">
<svg version="1.0" xmlns="http://www.w3.org/2000/svg"
 width="1478.000000pt" height="227.000000pt" viewBox="0 0 1478.000000 227.000000"
 preserveAspectRatio="xMidYMid meet">

<g transform="translate(0.000000,227.000000) scale(0.100000,-0.100000)"
fill="#000000" stroke="none">
<path d="M1925 2256 c-66 -21 -98 -41 -151 -98 -71 -75 -100 -121 -203 -317
-50 -95 -106 -194 -126 -220 -79 -109 -170 -165 -294 -183 -66 -10 -88 -9
-147 5 -123 31 -181 77 -356 287 -105 125 -181 171 -288 173 -153 3 -274 -113
-324 -308 -74 -292 -21 -715 112 -890 73 -96 145 -135 252 -135 102 0 163 50
301 245 155 221 279 298 449 281 147 -15 268 -106 383 -289 200 -317 255 -385
351 -432 146 -71 316 -27 461 120 117 118 186 261 233 480 24 108 26 141 26
340 0 190 -3 234 -22 323 -29 132 -71 248 -124 336 -49 84 -163 200 -234 238
-99 53 -216 70 -299 44z"/>
<path d="M3855 2178 c-3 -7 -4 -384 -3 -838 l3 -825 78 -3 77 -3 0 411 0 410
490 0 490 0 0 -410 0 -410 75 0 75 0 0 840 0 840 -75 0 -75 0 0 -365 0 -365
-490 0 -490 0 0 365 0 365 -75 0 c-51 0 -77 -4 -80 -12z"/>
<path d="M10030 2143 c-120 -41 -149 -55 -150 -73 0 -3 30 -5 67 -5 116 0 120
56 -46 -726 -78 -371 -150 -687 -160 -704 -21 -37 -82 -72 -138 -81 -23 -3
-44 -12 -47 -20 -5 -12 32 -14 228 -14 199 0 235 2 240 15 4 11 -1 15 -17 15
-40 1 -107 38 -117 65 -8 21 22 175 146 763 85 405 159 754 163 775 8 34 7 37
-13 36 -11 0 -82 -21 -156 -46z"/>
<path d="M14593 2143 c-90 -30 -133 -49 -133 -59 0 -12 9 -14 43 -9 56 8 95
-7 103 -41 6 -23 -43 -294 -77 -425 l-9 -36 -39 37 c-124 119 -338 125 -546
17 -91 -48 -221 -182 -272 -282 -149 -290 -129 -659 42 -790 68 -51 123 -69
215 -69 161 0 294 77 395 227 19 28 35 46 35 39 0 -13 -37 -184 -46 -214 -5
-17 7 -18 146 -18 138 0 151 2 148 17 -2 11 -18 20 -44 25 -46 10 -81 37 -90
73 -3 13 12 110 35 217 22 106 92 443 156 748 64 305 118 563 121 573 9 28
-36 20 -183 -30z m-304 -519 c61 -18 123 -70 153 -128 39 -77 36 -145 -22
-411 -58 -270 -74 -306 -166 -399 -75 -75 -148 -110 -242 -115 -210 -10 -323
145 -308 424 16 308 166 559 374 626 71 22 143 24 211 3z"/>
<path d="M10595 2115 c-128 -45 -102 -217 31 -202 51 5 81 27 101 76 36 86
-39 158 -132 126z"/>
<path d="M13476 2119 c-68 -19 -107 -94 -81 -155 16 -40 41 -54 94 -54 57 0
110 48 118 106 5 36 1 45 -23 72 -33 34 -66 44 -108 31z"/>
<path d="M8242 1700 c-164 -24 -310 -133 -393 -294 -124 -240 -78 -608 98
-781 166 -165 480 -189 682 -54 72 48 145 141 166 212 26 86 25 87 -55 87 -38
0 -70 -4 -70 -10 0 -29 -47 -128 -76 -160 -73 -81 -234 -119 -361 -86 -187 48
-280 169 -308 403 l-7 53 454 2 453 3 -3 85 c-7 213 -96 389 -243 477 -87 52
-229 78 -337 63z m204 -141 c65 -24 134 -83 169 -144 25 -42 55 -149 55 -197
l0 -28 -370 0 c-421 0 -384 -9 -354 91 30 102 90 193 157 241 84 60 237 76
343 37z"/>
<path d="M10458 1658 c-94 -31 -148 -55 -148 -63 0 -11 11 -13 50 -8 66 8 100
-13 100 -61 0 -56 -171 -848 -191 -888 -21 -42 -70 -72 -136 -83 -23 -3 -44
-13 -47 -21 -5 -12 28 -14 231 -12 165 2 237 6 240 14 2 7 -13 15 -34 19 -90
17 -120 58 -103 143 5 26 54 262 109 525 56 262 101 480 101 482 0 10 -29 2
-172 -47z"/>
<path d="M11295 1699 c-227 -29 -445 -207 -530 -433 -53 -141 -71 -375 -39
-500 54 -210 222 -317 426 -272 122 27 225 99 297 207 23 34 41 57 41 52 0
-36 -132 -610 -145 -630 -21 -32 -84 -60 -155 -69 -66 -8 -100 -20 -100 -34 0
-6 93 -10 271 -10 241 0 270 2 267 16 -2 9 -27 23 -58 34 -62 21 -80 40 -80
86 0 23 279 1345 325 1542 11 48 -26 20 -77 -58 -29 -44 -55 -80 -58 -80 -3 0
-13 13 -23 29 -50 85 -214 139 -362 120z m170 -88 c65 -29 98 -62 126 -125 35
-79 30 -155 -25 -416 -55 -258 -71 -295 -172 -390 -82 -77 -140 -104 -232
-108 -212 -12 -322 142 -309 428 14 279 134 507 319 601 87 44 206 48 293 10z"/>
<path d="M12068 1658 c-93 -31 -148 -55 -148 -63 0 -10 13 -12 55 -8 70 7 95
-11 95 -68 0 -22 -30 -179 -67 -351 -76 -357 -84 -447 -47 -529 45 -98 131
-149 250 -149 118 0 225 57 367 194 42 41 77 70 77 63 0 -7 -9 -52 -20 -101
-11 -50 -20 -96 -20 -103 0 -10 34 -13 150 -13 116 0 150 3 150 13 0 8 -24 18
-60 25 -67 14 -90 37 -90 89 0 17 36 200 79 405 126 591 135 638 128 644 -7 7
-285 -83 -304 -99 -25 -19 -12 -25 45 -20 73 7 92 -8 92 -72 0 -23 -32 -193
-70 -376 -62 -293 -73 -336 -94 -354 -187 -159 -254 -195 -359 -195 -143 0
-216 69 -217 202 0 36 35 220 90 478 50 231 90 425 90 430 0 15 -15 12 -172
-42z"/>
<path d="M13328 1658 c-161 -54 -194 -80 -90 -71 71 7 92 -9 92 -67 0 -58
-169 -851 -189 -885 -21 -37 -82 -72 -138 -81 -23 -3 -44 -12 -47 -20 -5 -12
30 -14 231 -12 178 2 237 6 241 16 2 6 -2 12 -10 12 -30 0 -91 23 -109 41 -13
13 -19 33 -19 60 0 23 47 266 105 541 58 275 105 504 105 509 0 14 -16 10
-172 -43z"/>
<path d="M6977 1689 c-97 -23 -207 -98 -269 -183 l-28 -39 0 101 0 102 -75 0
-75 0 0 -830 0 -830 75 0 75 0 2 355 3 356 40 -56 c79 -109 198 -173 341 -182
184 -12 341 70 451 235 125 189 130 521 10 732 -38 69 -127 156 -193 192 -94
51 -252 72 -357 47z m255 -147 c157 -77 237 -247 225 -482 -6 -111 -20 -166
-60 -246 -88 -172 -266 -250 -448 -195 -63 20 -80 31 -134 84 -100 101 -145
221 -145 387 0 104 16 183 56 270 47 102 100 154 201 196 49 21 71 24 148 22
79 -3 99 -7 157 -36z"/>
<path d="M9485 1686 c-103 -33 -203 -110 -253 -196 l-27 -45 -3 113 -3 112
-69 0 -70 0 0 -580 0 -581 73 3 72 3 5 375 c5 361 6 377 28 429 67 157 164
227 332 238 l90 6 0 68 0 69 -67 -1 c-38 0 -86 -6 -108 -13z"/>
<path d="M5325 1633 c8 -21 114 -274 234 -562 l218 -524 -103 -255 c-57 -140
-104 -261 -104 -268 0 -19 145 -20 153 -1 109 273 647 1638 647 1642 0 3 -34
5 -77 3 l-76 -3 -159 -420 c-160 -425 -198 -518 -206 -511 -2 3 -88 213 -192
468 l-187 463 -82 3 -81 3 15 -38z"/>
</g>
</svg>
