<svg xmlns="http://www.w3.org/2000/svg" viewBox="0 0 200 32" width="120" height="19">
  <!-- Icona HL a sinistra -->
  <g fill="#ffffff">
    <!-- Simbolo H stilizzato come nell'originale (due curve) -->
    <path d="M8 4 C8 4 2 10 2 16 C2 22 8 28 8 28 C8 28 6 22 6 16 C6 10 8 4 8 4 Z" opacity="0.9"/>
    <path d="M16 4 C16 4 22 10 22 16 C22 22 16 28 16 28 C16 28 18 22 18 16 C18 10 16 4 16 4 Z" opacity="0.9"/>
    <ellipse cx="12" cy="16" rx="3" ry="3" opacity="0.6"/>
  </g>
  <!-- Testo Hyperliquid -->
  <text x="30" y="22" font-family="Arial, sans-serif" font-size="14" font-weight="700" fill="#ffffff" letter-spacing="0.5">Hyperliquid</text>
</svg>
